<?xml version="1.0" encoding="UTF-8" standalone="no"?>
<!DOCTYPE svg PUBLIC "-//W3C//DTD SVG 1.1//EN" "http://www.w3.org/Graphics/SVG/1.1/DTD/svg11.dtd">
<svg width="100%" height="100%" viewBox="0 0 1093 1093" version="1.1" xmlns="http://www.w3.org/2000/svg" xmlns:xlink="http://www.w3.org/1999/xlink" xml:space="preserve" xmlns:serif="http://www.serif.com/" style="fill-rule:evenodd;clip-rule:evenodd;stroke-linejoin:round;stroke-miterlimit:1.41421;">
    <g transform="matrix(4.16667,0,0,4.16667,1092.41,924.826)">
        <path d="M0,-0.002C0,22.212 -18.006,40.22 -40.221,40.22C-62.434,40.22 -80.441,22.212 -80.441,-0.002C-80.441,-22.215 -62.434,-40.222 -40.221,-40.222C-18.006,-40.222 0,-22.215 0,-0.002" style="fill:rgb(179,187,188);"/>
    </g>
    <g transform="matrix(4.16667,0,0,4.16667,1092.41,546.205)">
        <path d="M0,-0.001C0,22.213 -18.006,40.22 -40.221,40.22C-62.434,40.22 -80.441,22.213 -80.441,-0.001C-80.441,-22.214 -62.434,-40.221 -40.221,-40.221C-18.006,-40.221 0,-22.214 0,-0.001" style="fill:rgb(179,187,188);"/>
    </g>
    <g transform="matrix(4.16667,0,0,4.16667,713.788,924.826)">
        <path d="M0,-0.002C0,22.212 -18.006,40.22 -40.221,40.22C-62.434,40.22 -80.44,22.212 -80.44,-0.002C-80.44,-22.215 -62.434,-40.222 -40.221,-40.222C-18.006,-40.222 0,-22.215 0,-0.002" style="fill:rgb(179,187,188);"/>
    </g>
    <g transform="matrix(4.16667,0,0,4.16667,713.788,167.588)">
        <path d="M0,-0.001C0,22.212 -18.006,40.22 -40.221,40.22C-62.434,40.22 -80.44,22.212 -80.44,-0.001C-80.44,-22.214 -62.434,-40.221 -40.221,-40.221C-18.006,-40.221 0,-22.214 0,-0.001" style="fill:rgb(182,196,47);"/>
    </g>
    <g transform="matrix(4.16667,0,0,4.16667,335.171,546.205)">
        <path d="M0,-0.001C0,22.213 -18.007,40.22 -40.221,40.22C-62.434,40.22 -80.441,22.213 -80.441,-0.001C-80.441,-22.214 -62.434,-40.221 -40.221,-40.221C-18.007,-40.221 0,-22.214 0,-0.001" style="fill:rgb(179,187,188);"/>
    </g>
    <g transform="matrix(4.16667,0,0,4.16667,335.171,167.588)">
        <path d="M0,-0.001C0,22.212 -18.007,40.22 -40.221,40.22C-62.434,40.22 -80.441,22.212 -80.441,-0.001C-80.441,-22.214 -62.434,-40.221 -40.221,-40.221C-18.007,-40.221 0,-22.214 0,-0.001" style="fill:rgb(179,187,188);"/>
    </g>
    <g transform="matrix(4.16667,0,0,4.16667,757.528,927.814)">
        <path d="M0,-182.302C0.035,-184.263 0.053,-186.208 0.334,-188.178C0.992,-192.796 2.463,-197.29 4.664,-201.403C8.986,-209.481 16.073,-215.957 24.514,-219.522C29.45,-221.607 34.793,-222.675 40.151,-222.675C62.364,-222.675 80.371,-204.669 80.371,-182.455C80.371,-173.12 77.072,-163.957 71.107,-156.775C65.214,-149.678 56.922,-144.732 47.863,-142.973C44.891,-142.396 41.894,-142.328 38.904,-142.016C33.597,-141.463 29.703,-141.214 25.288,-139.95C21.016,-138.727 16.88,-136.742 13.132,-134.374C5.399,-129.488 -0.955,-122.507 -5.081,-114.342C-7.84,-108.883 -9.45,-102.925 -10.12,-96.857C-10.771,-90.973 -10.556,-85.252 -12.357,-79.527C-13.923,-74.547 -16.456,-69.876 -19.797,-65.864C-25.713,-58.76 -34.035,-53.82 -43.119,-52.082C-48.689,-51.018 -54.542,-51.638 -60.184,-50.572C-64.795,-49.699 -69.279,-48.18 -73.471,-46.069C-81.694,-41.927 -88.721,-35.529 -93.624,-27.736C-96.786,-22.708 -98.953,-17.111 -100.152,-11.3C-101.283,-5.82 -100.987,-0.287 -101.799,5.209C-103.154,14.382 -107.753,22.919 -114.63,29.133C-122.913,36.617 -134.317,40.373 -145.424,39.321C-154.686,38.444 -163.472,34.284 -170.044,27.704C-177.929,19.809 -182.277,8.63 -181.766,-2.519C-181.367,-11.202 -178.087,-19.73 -172.528,-26.417C-166.625,-33.516 -158.32,-38.46 -149.25,-40.209C-143.852,-41.251 -138.297,-40.833 -132.88,-41.772C-128.287,-42.568 -123.808,-44.005 -119.609,-46.031C-111.383,-49.999 -104.297,-56.21 -99.271,-63.834C-96.007,-68.786 -93.698,-74.329 -92.347,-80.098C-91.666,-83.008 -91.224,-85.973 -91.004,-88.953C-90.794,-91.808 -90.923,-94.648 -90.495,-97.485C-89.249,-105.732 -85.365,-113.673 -79.501,-119.68C-72.771,-126.574 -63.643,-130.887 -54.038,-131.672C-52.934,-131.762 -51.826,-131.807 -50.718,-131.807C-41.196,-131.807 -31.733,-134.465 -23.679,-139.561C-15.945,-144.454 -9.593,-151.443 -5.472,-159.615C-3.733,-163.061 -2.393,-166.706 -1.486,-170.459C-0.715,-173.654 -0.191,-176.919 -0.056,-180.205C-0.027,-180.908 -0.012,-181.606 0,-182.302" style="fill:rgb(86,108,149);"/>
    </g>
</svg>
