<svg xmlns="http://www.w3.org/2000/svg" width="100%" height="100%" viewBox="0 0 1093 1093" fill-rule="evenodd"
     stroke-linejoin="round" stroke-miterlimit="1.41421">
    <path d="M1092.41 924.818c0 92.558-75.025 167.592-167.588 167.592-92.554 0-167.583-75.033-167.583-167.592s75.029-167.583 167.583-167.583c92.563 0 167.588 75.029 167.588 167.583m0-378.617c0 92.558-75.025 167.588-167.588 167.588-92.554 0-167.583-75.029-167.583-167.588s75.029-167.583 167.583-167.583c92.563 0 167.588 75.029 167.588 167.583M713.788 924.818c0 92.558-75.025 167.592-167.588 167.592-92.554 0-167.579-75.033-167.579-167.592S453.646 757.234 546.2 757.234c92.563 0 167.588 75.029 167.588 167.583"
          fill="#b3bbbc"/>
    <path d="M713.788 167.584c0 92.554-75.025 167.588-167.588 167.588-92.554 0-167.579-75.033-167.579-167.588S453.646 0 546.2 0c92.563 0 167.588 75.029 167.588 167.583"
          fill="#b6c42f"/>
    <path d="M335.171 546.201c0 92.558-75.029 167.588-167.588 167.588S0 638.759 0 546.201s75.029-167.583 167.583-167.583 167.588 75.029 167.588 167.583m0-378.617c0 92.554-75.029 167.588-167.588 167.588S0 260.138 0 167.584 75.029 0 167.583 0s167.588 75.03 167.588 167.584"
          fill="#b3bbbc"/>
    <path d="M757.528 168.222c.146-8.171.221-16.275 1.392-24.483a166.93 166.93 0 0 1 18.042-55.104c18.008-33.658 47.538-60.642 82.708-75.496C880.236 4.451 902.499.001 924.824.001c92.554 0 167.583 75.025 167.583 167.583 0 38.896-13.746 77.075-38.6 107-24.554 29.571-59.104 50.179-96.85 57.508-12.383 2.404-24.871 2.688-37.329 3.988-22.113 2.304-38.338 3.342-56.733 8.608-17.8 5.096-35.033 13.367-50.65 23.233-32.221 20.358-58.696 49.446-75.888 83.467-11.496 22.746-18.204 47.571-20.996 72.854-2.713 24.517-1.817 48.354-9.321 72.208-6.525 20.75-17.079 40.213-31 56.929-24.65 29.6-59.325 50.183-97.175 57.425-23.208 4.433-47.596 1.85-71.104 6.292-19.213 3.638-37.896 9.967-55.363 18.763-34.263 17.258-63.542 43.917-83.971 76.388-13.175 20.95-22.204 44.271-27.2 68.483-4.713 22.833-3.479 45.888-6.863 68.788-5.646 38.221-24.808 73.792-53.463 99.683-34.513 31.183-82.029 46.833-128.308 42.45-38.592-3.654-75.2-20.988-102.583-48.404C16.157 1010.352-1.96 963.772.169 917.318c1.663-36.179 15.329-71.713 38.492-99.575 24.596-29.579 59.2-50.179 96.992-57.467 22.492-4.342 45.638-2.6 68.208-6.513 19.138-3.317 37.8-9.304 55.296-17.746 34.275-16.533 63.8-42.413 84.742-74.179 13.6-20.633 23.221-43.729 28.85-67.767 2.838-12.125 4.679-24.479 5.596-36.896.875-11.896.338-23.729 2.121-35.55 5.192-34.363 21.375-67.45 45.808-92.479 28.042-28.725 66.075-46.696 106.096-49.967 4.6-.375 9.217-.563 13.833-.563 39.675 0 79.104-11.075 112.663-32.308 32.225-20.388 58.692-49.508 75.863-83.558a209.74 209.74 0 0 0 16.608-45.183c3.213-13.313 5.396-26.917 5.958-40.608l.233-8.738"
          fill="#566c95"/>
</svg>
